<?xml version="1.0" encoding="utf-8"?>
<!-- Generator: Adobe Illustrator 24.0.1, SVG Export Plug-In . SVG Version: 6.00 Build 0)  -->
<svg version="1.1" id="Layer_1" xmlns="http://www.w3.org/2000/svg" xmlns:xlink="http://www.w3.org/1999/xlink" x="0px" y="0px"
	 viewBox="0 0 200 265" style="enable-background:new 0 0 200 265;" xml:space="preserve">
<style type="text/css">
	.st0{fill:#707070;}
	.st1{fill:#FFFFFF;}
</style>
<title>Bookmark</title>
<g id="Layer_2_1_">
	<g id="Layer_1-2">
		<path class="st0" d="M33.5,205.5h156c5.8,0,10.5-4.7,10.5-10.5c0,0,0,0,0,0V35c0-19.3-15.7-35-35-35H35C15.7,0,0,15.7,0,35v195
			c0-0.1,0-0.1,0-0.2c-0.1,19.3,15.5,35.1,34.8,35.2c0.1,0,0.1,0,0.2,0h155.5c0.2,0,0.3,0,0.5,0v-0.3h0.2c2.5-0.2,4.9-1.3,6.5-3.3
			c1.4-1.4,1.5-3.7,0-5.2c-0.3-0.3-0.6-0.6-1-0.7c-0.6-0.3-1.3-0.4-1.9-0.3c-1.2,0.2-2.5,0.4-3.8,0.4v-0.2h-4.6l-1.2-0.2
			c-0.2,0-0.4-0.1-0.6-0.1h-0.4c-0.3,0-0.6,0-0.9-0.1c-10.4-2.7-18-11.5-19.2-22.2c-0.2-1.7-1.7-3-3.4-3h-2.2
			c-1.9,0-3.4,1.5-3.4,3.4c0,0.1,0,0.2,0,0.4c0.9,8.3,4.7,16,10.8,21.7H35.5c-18.3,0-32.1-19.7-21.1-39.1
			C17.8,210.3,26.5,205.5,33.5,205.5z M0.1,227.7c0,0.5-0.1,1.1-0.1,1.6C0,228.7,0.1,228.2,0.1,227.7z M0.3,225.6
			c0,0.4-0.1,0.9-0.1,1.3C0.2,226.5,0.2,226,0.3,225.6z"/>
		<polygon class="st1" points="44,0 44,100 64.8,83.3 84,100 84,0 		"/>
	</g>
</g>
</svg>
