<?xml version="1.0" encoding="utf-8"?>
<!-- Generator: Adobe Illustrator 24.0.1, SVG Export Plug-In . SVG Version: 6.00 Build 0)  -->
<svg version="1.1" id="Capa_1" xmlns="http://www.w3.org/2000/svg" xmlns:xlink="http://www.w3.org/1999/xlink" x="0px" y="0px"
	 viewBox="0 0 512 512" style="enable-background:new 0 0 512 512;" xml:space="preserve">
<style type="text/css">
	.st0{fill:#707070;}
</style>
<g>
	<g>
		<path class="st0" d="M378.7,21.3C321.9,21.3,275,74.1,256,99c-19-24.9-65.9-77.6-122.7-77.6C59.8,21.3,0,88.9,0,172
			c0,45.3,18,87.6,49.5,116.5c0.5,0.8,1,1.5,1.7,2.2l197.3,196.9c2.1,2.1,4.8,3.1,7.5,3.1s5.5-1,7.5-3.1l203.9-203.8l2.1-2
			c1.7-1.6,3.3-3.2,5.2-5.2c0.8-0.8,1.4-1.6,1.9-2.5c22.9-28,35.4-64.1,35.4-101.9C512,88.9,452.2,21.3,378.7,21.3z M458.8,261.9
			c-0.3,0.3-0.6,0.7-0.8,1.1c-1,1.1-2.1,2.2-3.2,3.2L256,464.9L68.7,278c-0.6-1.2-1.4-2.3-2.5-3.2C37.7,249.9,21.3,212.4,21.3,172
			c0-71.3,50.2-129.3,112-129.3c61.1,0,113.2,79.6,113.7,80.4c3.9,6.1,14,6.1,17.9,0c0.5-0.8,52.6-80.4,113.7-80.4
			c61.8,0,112,58,112,129.3C490.7,205.6,479.4,237.6,458.8,261.9z"/>
	</g>
</g>
</svg>
