<svg xmlns="http://www.w3.org/2000/svg" viewBox="0 0 30 30.5"><defs><style>.cls-1{fill:#fff;}.cls-2{fill:#707070;}</style></defs><title>Asset 1</title><g id="Layer_2" data-name="Layer 2"><g id="Layer_1-2" data-name="Layer 1"><path class="cls-1" d="M1.5,29v-.5a13.5,13.5,0,0,1,27,0V29Z"/><path class="cls-2" d="M15,16.5a12,12,0,0,1,12,11H3a12,12,0,0,1,12-11m0-3h0a15,15,0,0,0-15,15v2H30v-2a15,15,0,0,0-15-15Z"/><circle class="cls-1" cx="15" cy="8" r="6.5"/><path class="cls-2" d="M15,3a5,5,0,1,1-5,5,5,5,0,0,1,5-5m0-3a8,8,0,1,0,8,8,8,8,0,0,0-8-8Z"/></g></g></svg>