<svg xmlns="http://www.w3.org/2000/svg" viewBox="0 0 177.71 271"><defs><style>.cls-1,.cls-2{fill:none;stroke:#000;stroke-linecap:round;stroke-width:12px;}.cls-1{stroke-miterlimit:10;}.cls-2{stroke-linejoin:round;}</style></defs><title>Simple_Book</title><g id="Layer_2" data-name="Layer 2"><g id="Layer_2-2" data-name="Layer 2"><path class="cls-1" d="M6,238V31.89A25.89,25.89,0,0,1,31.89,6H145.82a25.89,25.89,0,0,1,25.89,25.89V187.25a25.89,25.89,0,0,1-25.89,25.89H32.41C5.48,213.14,6,240.59,6,240.59"/><path class="cls-2" d="M6,239.55V239a25.89,25.89,0,0,0,25.89,25.89H171.71s-23.3,2.59-23.3-23.31"/><line class="cls-1" x1="46.39" y1="54.16" x2="129.25" y2="54.16"/><line class="cls-1" x1="46.39" y1="73.84" x2="129.25" y2="73.84"/><line class="cls-1" x1="46.39" y1="93.52" x2="129.25" y2="93.52"/></g></g></svg>